HIERARCHY
ROOT Hips
{
	OFFSET 0.000000 71.427986 0.000000
	CHANNELS 6 Xposition Yposition Zposition Xrotation Yrotation Zrotation
	JOINT Pelvis
	{
		OFFSET 0.000000 0.000000 0.000000
		CHANNELS 3 Xrotation Yrotation Zrotation
		JOINT LeftUpLeg
		{
			OFFSET 6.797100 -2.508499 -1.318700
			CHANNELS 3 Xrotation Yrotation Zrotation
			JOINT LeftLeg
			{
				OFFSET 0.069008 -29.241863 0.690200
				CHANNELS 3 Xrotation Yrotation Zrotation
				JOINT LeftFoot
				{
					OFFSET -0.069008 -29.568123 -0.266800
					CHANNELS 3 Xrotation Yrotation Zrotation
					JOINT LeftToeBase
					{
						OFFSET 3.145500 -8.631000 16.059900
						CHANNELS 3 Xrotation Yrotation Zrotation
						End Site
						{
							OFFSET 0.000000 18.501587 0.000000
						}
					}
				}
			}
			JOINT Left_ShortSleeve
			{
				OFFSET 0.265923 -10.480953 1.153800
				CHANNELS 3 Xrotation Yrotation Zrotation
				End Site
				{
					OFFSET 1.725763 19.823879 0.000000
				}
			}
		}
		JOINT RightUpLeg
		{
			OFFSET -6.797100 -2.508499 -1.318700
			CHANNELS 3 Xrotation Yrotation Zrotation
			JOINT RightLeg
			{
				OFFSET -0.082453 -29.241932 0.688000
				CHANNELS 3 Xrotation Yrotation Zrotation
				JOINT RightFoot
				{
					OFFSET 0.082453 -29.568058 -0.264600
					CHANNELS 3 Xrotation Yrotation Zrotation
					JOINT RightToeBase
					{
						OFFSET -3.115300 -8.682800 16.113400
						CHANNELS 3 Xrotation Yrotation Zrotation
						End Site
						{
							OFFSET 0.000000 18.567114 0.000000
						}
					}
				}
			}
			JOINT Right_ShortSleeve
			{
				OFFSET -0.265923 -10.480953 1.153800
				CHANNELS 3 Xrotation Yrotation Zrotation
				End Site
				{
					OFFSET -1.725766 19.823910 0.000000
				}
			}
		}
	}
	JOINT Spine
	{
		OFFSET 0.000000 13.368103 0.470500
		CHANNELS 3 Xrotation Yrotation Zrotation
		JOINT Spine1
		{
			OFFSET 0.147000 13.837402 0.538800
			CHANNELS 3 Xrotation Yrotation Zrotation
			JOINT Spine2
			{
				OFFSET 0.168000 16.242897 -1.435500
				CHANNELS 3 Xrotation Yrotation Zrotation
				JOINT Neck
				{
					OFFSET 0.217200 18.631500 -1.679100
					CHANNELS 3 Xrotation Yrotation Zrotation
					JOINT Head
					{
						OFFSET 0.000000 6.599396 1.385900
						CHANNELS 3 Xrotation Yrotation Zrotation
						JOINT Hat
						{
							OFFSET -0.532200 27.220596 -10.096100
							CHANNELS 3 Xrotation Yrotation Zrotation
							End Site
							{
								OFFSET 0.000000 22.029861 0.000000
							}
						}
						JOINT HairD
						{
							OFFSET -10.777400 17.437393 -1.325900
							CHANNELS 3 Xrotation Yrotation Zrotation
							JOINT HairD1
							{
								OFFSET -3.290299 -11.051193 1.062200
								CHANNELS 3 Xrotation Yrotation Zrotation
								End Site
								{
									OFFSET 0.000000 11.579437 0.000000
								}
							}
						}
						JOINT HairB
						{
							OFFSET -10.777400 17.437393 1.467900
							CHANNELS 3 Xrotation Yrotation Zrotation
							JOINT HairB1
							{
								OFFSET -1.561200 -12.956299 3.590200
								CHANNELS 3 Xrotation Yrotation Zrotation
								End Site
								{
									OFFSET 0.000000 13.534866 0.000000
								}
							}
						}
						JOINT HairA
						{
							OFFSET 9.713100 17.437393 1.467900
							CHANNELS 3 Xrotation Yrotation Zrotation
							JOINT HairA1
							{
								OFFSET 1.561200 -12.956299 3.590200
								CHANNELS 3 Xrotation Yrotation Zrotation
								End Site
								{
									OFFSET 0.000000 13.534866 0.000000
								}
							}
						}
						JOINT HairC
						{
							OFFSET 9.713100 17.437393 -1.325900
							CHANNELS 3 Xrotation Yrotation Zrotation
							JOINT HairC1
							{
								OFFSET 3.290300 -11.051193 1.062200
								CHANNELS 3 Xrotation Yrotation Zrotation
								End Site
								{
									OFFSET 0.000000 11.579437 0.000000
								}
							}
						}
					}
				}
				JOINT LeftShoulder
				{
					OFFSET 5.101800 15.108002 -2.763700
					CHANNELS 3 Xrotation Yrotation Zrotation
					JOINT LeftArm
					{
						OFFSET 9.825497 2.506317 -1.597400
						CHANNELS 3 Xrotation Yrotation Zrotation
						JOINT LeftForeArm
						{
							OFFSET 21.966244 0.000000 0.000000
							CHANNELS 3 Xrotation Yrotation Zrotation
							JOINT LeftHand
							{
								OFFSET 33.879036 0.000000 0.000000
								CHANNELS 3 Xrotation Yrotation Zrotation
								JOINT LeftHandThumb1
								{
									OFFSET 6.715286 -2.359680 3.363841
									CHANNELS 3 Xrotation Yrotation Zrotation
									JOINT LeftHandThumb2
									{
										OFFSET 2.507072 -1.447464 1.447461
										CHANNELS 3 Xrotation Yrotation Zrotation
										JOINT LeftHandThumb3
										{
											OFFSET 2.898338 -1.673355 1.673357
											CHANNELS 3 Xrotation Yrotation Zrotation
											End Site
											{
												OFFSET -0.295959 3.727692 -0.131651
											}
										}
									}
								}
								JOINT LeftHandIndex1
								{
									OFFSET 14.190811 -0.254547 3.840278
									CHANNELS 3 Xrotation Yrotation Zrotation
									JOINT LeftHandIndex2
									{
										OFFSET 3.551727 0.000000 -0.000000
										CHANNELS 3 Xrotation Yrotation Zrotation
										JOINT LeftHandIndex3
										{
											OFFSET 2.894196 0.000000 0.000000
											CHANNELS 3 Xrotation Yrotation Zrotation
											End Site
											{
												OFFSET -1.000603 2.690872 0.366626
											}
										}
									}
								}
								JOINT LeftHandMiddle1
								{
									OFFSET 13.776489 0.000000 0.000000
									CHANNELS 3 Xrotation Yrotation Zrotation
									JOINT LeftHandMiddle2
									{
										OFFSET 3.438232 0.000000 0.000000
										CHANNELS 3 Xrotation Yrotation Zrotation
										JOINT LeftHandMiddle3
										{
											OFFSET 3.691551 0.000000 0.000000
											CHANNELS 3 Xrotation Yrotation Zrotation
											End Site
											{
												OFFSET -1.082298 3.499527 0.457670
											}
										}
									}
								}
								JOINT LeftHandRing1
								{
									OFFSET 13.966164 -0.268127 -3.067488
									CHANNELS 3 Xrotation Yrotation Zrotation
									JOINT LeftHandRing2
									{
										OFFSET 3.162567 0.000000 0.000000
										CHANNELS 3 Xrotation Yrotation Zrotation
										JOINT LeftHandRing3
										{
											OFFSET 3.324348 0.000000 0.000000
											CHANNELS 3 Xrotation Yrotation Zrotation
											End Site
											{
												OFFSET -0.861900 3.184998 0.405154
											}
										}
									}
								}
								JOINT LeftHandPinky1
								{
									OFFSET 13.131393 -0.168503 -5.746925
									CHANNELS 3 Xrotation Yrotation Zrotation
									JOINT LeftHandPinky2
									{
										OFFSET 2.849182 0.000000 0.000000
										CHANNELS 3 Xrotation Yrotation Zrotation
										JOINT LeftHandPinky3
										{
											OFFSET 2.805038 0.000000 0.000000
											CHANNELS 3 Xrotation Yrotation Zrotation
											End Site
											{
												OFFSET -0.882500 2.642609 0.325652
											}
										}
									}
								}
							}
							JOINT Left_Sleeve
							{
								OFFSET 6.592125 -0.646545 0.805568
								CHANNELS 3 Xrotation Yrotation Zrotation
								End Site
								{
									OFFSET -0.000179 20.275787 -0.000000
								}
							}
						}
					}
				}
				JOINT RightShoulder
				{
					OFFSET -5.731700 15.108002 -2.763700
					CHANNELS 3 Xrotation Yrotation Zrotation
					JOINT RightArm
					{
						OFFSET -9.825497 2.506317 -1.597400
						CHANNELS 3 Xrotation Yrotation Zrotation
						JOINT RightForeArm
						{
							OFFSET -21.966242 0.000000 0.000000
							CHANNELS 3 Xrotation Yrotation Zrotation
							JOINT RightHand
							{
								OFFSET -33.879032 0.000000 0.000000
								CHANNELS 3 Xrotation Yrotation Zrotation
								JOINT RightHandThumb1
								{
									OFFSET -6.715286 -2.359680 3.363841
									CHANNELS 3 Xrotation Yrotation Zrotation
									JOINT RightHandThumb2
									{
										OFFSET -2.507072 -1.447464 1.447461
										CHANNELS 3 Xrotation Yrotation Zrotation
										JOINT RightHandThumb3
										{
											OFFSET -2.898338 -1.673355 1.673357
											CHANNELS 3 Xrotation Yrotation Zrotation
											End Site
											{
												OFFSET 0.295959 3.727692 -0.131651
											}
										}
									}
								}
								JOINT RightHandIndex1
								{
									OFFSET -14.190811 -0.254547 3.840278
									CHANNELS 3 Xrotation Yrotation Zrotation
									JOINT RightHandIndex2
									{
										OFFSET -3.551727 0.000000 -0.000000
										CHANNELS 3 Xrotation Yrotation Zrotation
										JOINT RightHandIndex3
										{
											OFFSET -2.894196 0.000000 0.000000
											CHANNELS 3 Xrotation Yrotation Zrotation
											End Site
											{
												OFFSET 1.000603 2.690872 0.366626
											}
										}
									}
								}
								JOINT RightHandMiddle1
								{
									OFFSET -13.776489 0.000000 0.000000
									CHANNELS 3 Xrotation Yrotation Zrotation
									JOINT RightHandMiddle2
									{
										OFFSET -3.438232 0.000000 0.000000
										CHANNELS 3 Xrotation Yrotation Zrotation
										JOINT RightHandMiddle3
										{
											OFFSET -3.691551 0.000000 0.000000
											CHANNELS 3 Xrotation Yrotation Zrotation
											End Site
											{
												OFFSET 1.082298 3.499527 0.457670
											}
										}
									}
								}
								JOINT RightHandRing1
								{
									OFFSET -13.966164 -0.268127 -3.067488
									CHANNELS 3 Xrotation Yrotation Zrotation
									JOINT RightHandRing2
									{
										OFFSET -3.162567 0.000000 0.000000
										CHANNELS 3 Xrotation Yrotation Zrotation
										JOINT RightHandRing3
										{
											OFFSET -3.324348 0.000000 0.000000
											CHANNELS 3 Xrotation Yrotation Zrotation
											End Site
											{
												OFFSET 0.861900 3.184998 0.405154
											}
										}
									}
								}
								JOINT RightHandPinky1
								{
									OFFSET -13.131393 -0.168503 -5.746925
									CHANNELS 3 Xrotation Yrotation Zrotation
									JOINT RightHandPinky2
									{
										OFFSET -2.849182 0.000000 0.000000
										CHANNELS 3 Xrotation Yrotation Zrotation
										JOINT RightHandPinky3
										{
											OFFSET -2.805038 0.000000 0.000000
											CHANNELS 3 Xrotation Yrotation Zrotation
											End Site
											{
												OFFSET 0.882500 2.642609 0.325652
											}
										}
									}
								}
							}
							JOINT Right_Sleeve
							{
								OFFSET -6.592125 -0.646545 0.805568
								CHANNELS 3 Xrotation Yrotation Zrotation
								End Site
								{
									OFFSET 0.000179 20.275787 -0.000000
								}
							}
						}
					}
				}
				JOINT Bind_Right_JacketString
				{
					OFFSET -3.534800 11.969597 7.200700
					CHANNELS 3 Xrotation Yrotation Zrotation
					JOINT Bind_Right_JacketString1
					{
						OFFSET -0.319900 -6.102600 2.794100
						CHANNELS 3 Xrotation Yrotation Zrotation
						End Site
						{
							OFFSET 0.000000 6.719452 0.000000
						}
					}
				}
				JOINT Bind_Left_JacketString
				{
					OFFSET 2.904800 11.969597 7.200700
					CHANNELS 3 Xrotation Yrotation Zrotation
					JOINT Bind_Left_JacketString1
					{
						OFFSET 0.364800 -5.904503 3.186800
						CHANNELS 3 Xrotation Yrotation Zrotation
						End Site
						{
							OFFSET 0.000000 6.719513 0.000000
						}
					}
				}
				JOINT HairE
				{
					OFFSET 5.915200 17.612701 -11.592200
					CHANNELS 3 Xrotation Yrotation Zrotation
					JOINT HairE1
					{
						OFFSET 0.289200 -7.171898 -1.284500
						CHANNELS 3 Xrotation Yrotation Zrotation
						End Site
						{
							OFFSET 0.000000 7.291756 0.000000
						}
					}
				}
				JOINT HairF
				{
					OFFSET -0.864800 17.612701 -11.592200
					CHANNELS 3 Xrotation Yrotation Zrotation
					JOINT HairF1
					{
						OFFSET 0.000000 -14.087097 -2.127501
						CHANNELS 3 Xrotation Yrotation Zrotation
						End Site
						{
							OFFSET 0.000000 14.246841 0.000000
						}
					}
				}
				JOINT HairG
				{
					OFFSET -8.087700 17.612701 -11.592200
					CHANNELS 3 Xrotation Yrotation Zrotation
					JOINT HairG1
					{
						OFFSET -0.293600 -6.081398 -0.910100
						CHANNELS 3 Xrotation Yrotation Zrotation
						End Site
						{
							OFFSET 0.000000 6.156120 0.000000
						}
					}
				}
			}
		}
	}
	JOINT Pouch
	{
		OFFSET 0.000000 4.394501 10.847300
		CHANNELS 3 Xrotation Yrotation Zrotation
		End Site
		{
			OFFSET 0.000000 21.880577 0.000000
		}
	}
	JOINT Bag
	{
		OFFSET -13.229000 4.813004 -0.593300
		CHANNELS 3 Xrotation Yrotation Zrotation
		End Site
		{
			OFFSET 0.000000 21.880577 0.000000
		}
	}
	JOINT OccupyGuyFacialAnim_Joint
	{
		OFFSET 1.000000 -70.206398 -1.655000
		CHANNELS 3 Xrotation Yrotation Zrotation
		End Site
		{
			OFFSET 0.000000 21.880577 0.000000
		}
	}
}
MOTION
Frames: 4
Frame Time: 0.033333
6.863216 25.824333 -18.973461 -103.352845 50.476061 84.099546 -0.000001 -0.000001 -0.000000 -64.829212 40.783312 34.049019 146.931808 -10.816654 9.557724 13.663412 -3.320493 -33.796220 -0.000001 0.000000 -0.000000 -0.000000 0.000000 -0.000002 -25.680482 30.314572 -28.652934 132.960055 5.753637 -8.972357 -33.493021 2.016208 24.030390 0.000002 0.000001 0.000001 -0.000002 0.000000 -0.000003 30.205077 0.665959 -0.344628 -3.512204 0.583655 -3.503309 -3.500152 0.369553 -3.551964 -4.962611 5.201095 3.350301 13.786540 30.118962 -9.171532 0.000000 -0.000001 -0.000003 0.000000 -0.000001 -0.000003 0.000000 -0.000001 -0.000002 0.000000 -0.000001 -0.000001 -0.000002 -0.000001 -0.000001 0.000000 -0.000001 -0.000001 -0.000002 -0.000001 -0.000001 0.000000 -0.000001 -0.000003 0.000000 -0.000001 -0.000003 1.725516 -5.778053 4.037505 -17.204926 -36.837672 -67.232400 0.000064 -77.111784 0.000087 -90.149488 -12.513519 4.602092 -8.939557 9.663412 5.573449 -2.472358 14.610796 -0.795029 -0.000002 0.000004 -0.000002 0.139676 1.382605 -11.536734 0.729676 3.089728 -26.569552 0.000002 0.000000 0.000003 0.180498 1.572589 -12.283551 0.731412 3.093183 -26.601625 0.000001 0.000001 -0.000003 0.356775 2.194898 -17.525970 1.031981 3.630907 -31.723517 -0.000000 -0.000001 -0.000003 1.915368 6.403525 -20.091592 1.125759 -0.305353 -33.408071 -0.000000 0.000001 0.000001 0.000001 -0.000001 0.000002 -0.120893 -1.403759 -7.262433 -64.195493 10.979364 74.521100 0.012670 88.870248 -0.012684 20.341331 -25.663717 -22.642958 6.127336 -8.378936 -6.143297 13.204812 -12.572818 0.152186 0.000000 -0.000002 0.000000 0.565521 -2.721152 23.686604 1.813684 -4.687551 42.286090 -0.000001 0.000000 0.000000 0.589143 -2.775034 23.811269 1.813692 -4.687564 42.286101 -0.000001 0.000001 0.000001 0.893459 -3.386801 29.470152 2.379863 -5.240831 48.821878 0.000000 0.000001 -0.000002 1.146873 -3.804626 33.816984 2.721693 -5.519936 52.466088 -0.000001 0.000001 0.000001 0.000000 -0.000001 -0.000001 0.000001 0.000000 0.000001 0.000001 0.000000 0.000001 0.000001 0.000000 0.000001 0.000001 0.000000 0.000001 0.000001 0.000000 0.000001 0.000001 0.000000 0.000001 0.000001 0.000000 0.000001 0.000001 0.000000 0.000001 0.000001 0.000000 0.000001 0.000001 0.000000 0.000001 -0.000001 -0.000001 -0.000000 -0.000001 -0.000001 -0.000000 -0.000001 -0.000001 -0.000000 
6.745743 19.917171 -21.056822 -106.780186 49.345467 85.726708 0.000002 0.000001 0.000000 -71.293767 49.936763 32.460744 147.765446 -7.938460 10.485574 15.916149 -2.710927 -38.906608 -0.000001 0.000001 -0.000000 0.000001 0.000000 0.000001 -29.793251 42.948089 -34.197480 133.659972 6.079818 -9.229478 -15.570401 12.705464 28.556787 -0.000002 0.000001 0.000002 -0.000000 -0.000001 0.000002 32.018766 -1.337342 1.512522 -4.177857 0.251190 -3.755370 -4.182196 0.024161 -3.764690 -4.175291 5.042332 3.485038 15.435862 29.555748 -9.580513 -0.000000 -0.000001 0.000000 -0.000000 -0.000001 0.000000 -0.000000 -0.000001 0.000001 -0.000000 -0.000001 0.000001 -0.000001 0.000001 0.000001 -0.000000 -0.000001 0.000001 -0.000001 0.000001 0.000001 -0.000000 -0.000001 0.000000 -0.000000 -0.000001 0.000000 1.636261 -5.734764 5.230082 -16.424689 -37.176327 -67.434499 -0.000023 -78.352460 -0.000025 -89.773834 -15.384113 6.348649 -8.939556 9.663414 5.573454 -2.472357 14.610796 -0.795031 -0.000002 -0.000000 0.000001 0.139677 1.382608 -11.536732 0.729677 3.089728 -26.569552 0.000004 0.000003 -0.000001 0.180499 1.572590 -12.283546 0.731413 3.093182 -26.601623 -0.000001 -0.000001 0.000000 0.356775 2.194899 -17.525967 1.031982 3.630903 -31.723524 -0.000000 0.000001 0.000000 1.915370 6.403529 -20.091592 1.125761 -0.305356 -33.408074 0.000001 -0.000001 -0.000001 -0.000001 -0.000002 0.000001 -0.174035 -1.583636 -7.357047 -64.656859 11.875223 73.862321 0.020492 89.775665 -0.020782 14.955662 -15.767314 -19.847695 6.146343 -8.374364 -6.121689 13.204813 -12.572828 0.152196 0.000001 -0.000001 0.000000 0.515714 -2.605034 22.694301 1.724042 -4.587378 41.177257 -0.000001 -0.000004 0.000007 0.538373 -2.659359 22.818883 1.724034 -4.587373 41.177250 -0.000001 -0.000003 0.000000 0.831330 -3.276965 28.475204 2.279483 -5.151665 47.713632 -0.000001 -0.000002 -0.000000 1.077187 -3.699992 32.822348 2.615535 -5.437111 51.354362 0.000000 -0.000000 0.000000 -0.000002 0.000001 0.000000 0.000001 0.000000 0.000001 -0.000001 0.000001 0.000001 0.000001 0.000000 0.000001 0.000001 0.000000 0.000001 0.000001 0.000000 0.000001 -0.000001 0.000001 0.000001 0.000001 0.000000 0.000001 0.000001 0.000000 0.000001 0.000001 0.000000 0.000001 -0.000001 0.000001 0.000001 0.000002 0.000001 0.000000 0.000002 0.000001 0.000000 0.000002 0.000001 0.000000 
6.594490 14.488430 -22.936531 -116.610030 47.252738 90.163353 -0.000000 -0.000001 0.000000 -87.120504 65.392832 32.236335 146.536736 -0.615717 9.456893 15.197685 9.087273 -21.980799 -0.000001 -0.000000 0.000000 0.000002 0.000000 0.000000 -37.835228 46.097954 -32.712699 130.613721 2.022507 -9.644479 14.167099 19.951715 17.718306 -0.000003 0.000001 0.000001 0.000001 0.000001 -0.000002 34.371257 -3.971189 7.487032 -4.748667 -0.354295 -4.131465 -4.797490 -0.566986 -4.060105 -2.002016 4.748749 3.622603 15.194746 28.673175 -9.556274 -0.000001 0.000001 0.000001 -0.000001 0.000001 0.000001 -0.000001 0.000001 0.000002 -0.000001 0.000001 0.000001 -0.000001 0.000001 0.000001 -0.000001 0.000001 0.000001 -0.000001 0.000001 0.000001 -0.000001 0.000001 0.000001 -0.000001 0.000001 0.000001 1.654827 -6.275717 6.461000 -16.289950 -37.749475 -67.708061 0.000236 -79.685556 0.000258 -89.110937 -16.191908 8.721815 -8.939554 9.663410 5.573450 -2.472358 14.610792 -0.795028 -0.000001 -0.000002 -0.000001 0.139678 1.382607 -11.536739 0.729678 3.089726 -26.569552 0.000001 0.000000 -0.000000 0.180500 1.572588 -12.283555 0.731409 3.093181 -26.601620 0.000001 -0.000001 0.000000 0.356778 2.194898 -17.525972 1.031981 3.630906 -31.723517 -0.000000 0.000002 -0.000001 1.915371 6.403527 -20.091596 1.125762 -0.305357 -33.408077 -0.000001 -0.000002 0.000001 0.000002 0.000000 -0.000000 0.156666 -0.670378 -6.585591 -66.728482 11.835110 71.089271 -0.050480 91.211459 0.050667 16.328513 -9.202468 -16.300013 6.169400 -8.395174 -6.104032 13.204813 -12.572823 0.152198 -0.000001 0.000000 -0.000000 0.461651 -2.510236 21.567366 1.628056 -4.475616 39.962518 -0.000001 -0.000000 0.000005 0.483302 -2.565077 21.691859 1.628043 -4.475618 39.962511 0.000001 -0.000000 -0.000003 0.763050 -3.188891 27.345753 2.171511 -5.051754 46.499218 -0.000002 -0.000002 0.000001 1.000414 -3.617606 31.693194 2.501122 -5.344028 50.136447 -0.000002 -0.000003 0.000002 -0.000001 0.000000 0.000001 -0.000001 0.000000 0.000001 0.000000 0.000000 0.000000 -0.000001 0.000000 -0.000001 -0.000001 0.000000 -0.000001 -0.000001 0.000000 0.000001 0.000000 0.000000 0.000001 -0.000001 0.000000 -0.000001 -0.000001 0.000000 -0.000001 -0.000001 0.000000 0.000001 0.000000 0.000000 0.000001 -0.000000 -0.000001 0.000000 -0.000000 -0.000001 0.000000 -0.000000 -0.000001 0.000000 
6.640087 11.525826 -24.843023 -130.172723 43.928382 92.613226 -0.000001 -0.000001 0.000001 -70.311661 67.208064 3.426759 135.599800 15.529878 6.850396 16.855276 6.806683 2.790319 0.000001 -0.000000 0.000000 -0.000001 -0.000000 -0.000001 -44.225355 33.613523 -27.856175 125.851836 -0.874058 -9.879607 38.255702 12.340235 7.358644 -0.000000 -0.000001 -0.000000 0.000001 0.000001 0.000004 33.696188 -6.008176 14.592298 -2.911071 -1.074169 -3.488732 -3.001200 -1.227361 -3.367056 0.642111 4.004852 4.571295 13.965654 26.869440 -8.775901 0.000002 -0.000002 -0.000000 0.000002 -0.000002 -0.000000 0.000002 -0.000002 0.000001 0.000002 -0.000002 -0.000000 -0.000000 -0.000001 0.000003 0.000002 -0.000002 -0.000000 -0.000000 -0.000001 0.000003 0.000002 -0.000002 -0.000000 0.000002 -0.000002 -0.000000 1.788307 -7.340214 7.163017 -17.064295 -39.170179 -70.240832 0.000048 -78.663091 0.000043 -87.833788 -14.538703 4.089895 -8.939554 9.663408 5.573447 -2.472358 14.610791 -0.795030 -0.000001 -0.000003 0.000001 0.139677 1.382604 -11.536736 0.729674 3.089730 -26.569557 0.000001 0.000000 -0.000000 0.180499 1.572587 -12.283546 0.731410 3.093181 -26.601620 0.000002 -0.000001 -0.000001 0.356777 2.194895 -17.525965 1.031982 3.630902 -31.723514 -0.000001 0.000000 0.000002 1.915371 6.403525 -20.091594 1.125762 -0.305355 -33.408074 0.000000 0.000000 0.000003 -0.000001 -0.000003 0.000002 0.964338 0.371205 -3.255279 -64.432132 13.262810 64.226769 0.000214 96.376483 -0.000222 15.945276 -5.579145 -16.531686 6.172582 -8.389130 -6.127008 13.204819 -12.572820 0.152191 0.000000 -0.000001 0.000001 0.407203 -2.369756 20.371582 1.534079 -4.361374 38.742807 -0.000002 0.000003 0.000002 0.427704 -2.425084 20.495987 1.534092 -4.361367 38.742803 -0.000001 -0.000000 0.000001 0.693738 -3.055575 26.149934 2.064801 -4.948661 45.274896 0.000002 0.000000 -0.000001 0.921629 -3.489661 30.494797 2.388241 -5.248115 48.913587 0.000002 0.000000 0.000001 -0.000001 -0.000001 -0.000001 0.000001 0.000000 0.000002 -0.000001 0.000000 0.000001 0.000001 0.000000 0.000002 0.000001 0.000000 0.000002 0.000001 0.000000 0.000002 -0.000001 0.000000 0.000001 0.000001 0.000000 0.000002 0.000001 0.000000 0.000002 0.000001 0.000000 0.000002 -0.000001 0.000000 0.000001 -0.000001 -0.000001 0.000001 -0.000001 -0.000001 0.000001 -0.000001 -0.000001 0.000001 
